<?xml version="1.0"?>
<svg version="1.1" xmlns="http://www.w3.org/2000/svg" width="300" height="40" style=""><path fill="#03c6fc" d="M31.016,29.24q-1.4,0-2.604-0.224q0.392,1.232,1.652,5.572q0.392,1.26,1.232,2.548q1.148,1.652,2.128,1.652q1.176,0,1.96-2.38q0.14-0.56,0.294-0.56t0.224,0.322t0.07,0.434q0,0.7-0.784,1.792q-1.036,1.54-2.268,1.54t-2.268-1.232t-2.03-4.494t-0.994-4.158q0-0.14,0.028-0.224q-3.36,4.452-4.816,5.88q-3.248,3.164-6.636,3.164q-2.38,0-2.38-1.792q0-0.896,0.56-1.974t1.372-1.89t1.428-0.812q0.112,0,0.112,0.056q0,0.14-0.7,0.7t-1.344,1.582t-0.644,1.862q0,1.484,1.988,1.484q3.724,0,10.248-8.736q0.364-0.476,0.616-0.672l-0.448-0.168q-0.364,0.14-0.588,0.14q-0.588,0-0.588-0.476q0-0.644,0.868-0.84q0.112-0.028,0.196-0.028q0.504,0,1.176,0.504q2.464-2.744,2.52-2.8q2.044-2.1,2.758-2.1t0.714,0.616q0,0.28-0.126,0.532t-0.294,0.252q-0.168,0.056-0.168-0.168q0-0.112,0.168-0.336q0.028-0.392-0.252-0.392q-0.896,0-4.34,4.76q0.84,0.056,1.4,0.056q6.496,0,8.12-3.36q0.336-0.728,0.336-1.344q0-1.232-1.12-2.128q-1.792-1.456-5.824-1.456t-8.232,2.044q-5.096,2.492-5.096,5.852q0,1.092,1.372,1.092t2.912-1.008t2.072-1.988q0.196-0.364,0.378-0.364t0.098,0.224q-0.532,1.568-2.366,2.674t-3.822,1.106t-1.988-1.26l0-0.196q0.42-3.668,4.494-6.23t9.814-2.562q5.348,0,7.588,1.848q1.344,1.12,1.344,2.632q0,0.644-0.308,1.4q-0.868,2.044-3.556,3.038t-5.656,0.994z M46.58876,28.428l0.392-0.084q0.308,0,0.588,0.252t0.28,0.392t-1.736,2.702t-1.736,3.57q0,0.084,0.028,0.168q0.14,0.644,0.616,0.644q1.456,0,5.32-4.816q0.084-0.112,0.196-0.112t0.112,0.21t-0.252,0.546q-3.584,4.788-5.46,4.788q-0.252,0-0.476-0.084q-1.232-0.476-1.232-1.848q0-0.476,0.112-0.952l-1.736,1.68q-1.652,1.456-2.394,1.456t-1.414-0.476q-0.756-0.56-0.756-1.484q0-2.044,2.856-4.886t5.236-2.842q0.924,0,1.232,0.644q0.084,0.224,0.14,0.378t0.084,0.154z M38.21676,35.316q0,1.008,0.7,1.008q1.624,0,4.424-3.556l2.968-4.088q-0.224-0.392-0.728-0.392q-1.708,0-4.536,2.646t-2.828,4.382z M56.70152,36.688q-1.652,0-1.652-1.932q0-1.092,0.77-2.422t1.89-3.122q-3.584,1.792-6.496,5.292q-1.624,2.436-1.904,2.436q-0.812,0-0.812-0.476q0-0.252,0.336-0.896q2.716-4.844,4.116-7.084q3.332-5.348,4.704-5.796q0.056-0.028,0.112-0.028q0.364,0,0.504,0.588q-0.084,0.588-2.912,4.256q-2.94,3.724-3.332,4.872q1.036-0.756,3.612-2.548q2.772-1.932,3.668-1.932t0.896,0.7q0,0.112-0.014,0.154t-1.946,2.646t-1.932,3.836q0,0.644,0.476,0.644q1.512-0.056,4.536-3.64q0.252-0.252,0.378-0.252t0.126,0.168q0,0.56-2.772,3.024q-1.736,1.512-2.352,1.512z M69.67028,36.968q-0.14,0.028-0.602,0.028t-0.924-0.364t-0.462-0.938t0.21-1.274t0.294-1.064q-3.22,3.752-5.04,3.752q-1.148,0-1.26-1.428l0-0.196q0-1.204,1.456-3.248q-0.812,0.728-1.652,1.68q-0.112,0.112-0.28,0.112q-0.112,0-0.112-0.14t0.252-0.476l3.864-4.536q0.728-0.84,1.484-0.84t0.756,0.504q0,0.196-0.168,0.364q-1.12,1.036-2.814,3.444t-1.694,3.556q0,0.504,0.336,0.504q1.176,0,3.416-2.324q0.784-0.784,2.912-3.458t2.8-2.674q1.008,0,1.008,0.784q0,0.28-1.176,1.624q-1.596,1.932-2.436,3.15t-0.84,1.974t0.42,0.756q0.196,0,0.448-0.112q1.932-0.84,4.62-3.92q0.168-0.196,0.336-0.196t0.168,0.182t-0.196,0.406q-1.204,1.4-2.828,2.814t-2.296,1.554z M76.98304,36.24q0.924,0,2.38-0.98t2.828-2.66q0.336-0.448,0.532-0.448t0.196,0.168t-1.148,1.456q-2.8,3.08-4.676,3.08q-0.924,0-1.568-0.434t-0.644-1.344t0.476-2.114q0.812-1.904,2.604-4.788q3.276-5.32,4.648-5.32q0.28,0,0.574,0.21t0.322,0.462q-0.644,0.868-2.478,3.332t-2.534,3.542t-1.05,1.61t-0.518,0.826t-0.392,0.77q-0.476,0.952-0.476,1.792t0.924,0.84z M111.34856,31.508q0,1.008-0.448,1.904q-0.952,2.016-3.64,3.36t-5.6,1.344q-4.424,0-6.02-3.024q-2.884,2.408-4.116,2.408q-0.224,0-0.392-0.084q-0.84-0.448-0.84-1.932t1.232-3.64t2.156-2.548q0.42-0.14,0.644-0.14q0.812,0,1.232,1.344l0.84,2.688q0.812-0.868,2.212-2.772l2.492-3.36q4.592-5.964,6.02-6.524q0.504-0.196,1.036-0.196t0.882,0.224t0.35,0.56q0,0.504-0.812,0.588q-0.84,0.476-3.206,2.786t-2.814,2.926q-3.136,4.368-5.796,6.72q1.708,3.388,5.124,3.388q2.072,0,4.116-1.302t3.052-3.206q0.448-0.812,0.448-1.82t-0.798-1.918t-2.002-1.33q-0.56-0.084-1.792-0.238t-1.232-0.518q0-0.14,0.112-0.252q0.336-0.392,0.868-0.392q0.308,0,0.602,0.112t0.462,0.168t0.392,0.14q0.616,0.056,1.064,0.056q1.848,0,3.36-0.588q1.932-0.756,2.464-2.268q0.336-0.98,0.336-1.764q0-1.932-1.876-2.884q-1.624-0.84-4.452-0.84q-4.452,0-7.98,1.68q-1.792,0.84-3.402,2.492t-1.61,2.828q0,0.812,0.42,1.344q0.168,0.224,0.588,0.56q0.14,0.084-0.168,0.084q-1.736-0.392-1.736-2.324t1.96-3.64q1.456-1.26,3.276-2.044q3.78-1.624,8.596-1.624q3.444,0,5.488,1.008q2.38,1.12,2.38,3.388q0,0.896-0.364,1.82q-0.588,1.68-3.052,2.548q-1.848,0.644-3.976,0.672q1.652,0.084,2.786,1.218t1.134,2.814z M93.45656,30.472q-0.028,0-0.14,0.056q-2.072,2.996-2.072,4.816q0,0.756,0.364,1.372q0.084,0.14,0.28,0.14q0.896,0,3.444-2.548l-0.084-0.112q-1.12-3.724-1.792-3.724z M123.25332,28.428l0.392-0.084q0.308,0,0.588,0.252t0.28,0.392t-1.736,2.702t-1.736,3.57q0,0.084,0.028,0.168q0.14,0.644,0.616,0.644q1.456,0,5.32-4.816q0.084-0.112,0.196-0.112t0.112,0.21t-0.252,0.546q-3.584,4.788-5.46,4.788q-0.252,0-0.476-0.084q-1.232-0.476-1.232-1.848q0-0.476,0.112-0.952l-1.736,1.68q-1.652,1.456-2.394,1.456t-1.414-0.476q-0.756-0.56-0.756-1.484q0-2.044,2.856-4.886t5.236-2.842q0.924,0,1.232,0.644q0.084,0.224,0.14,0.378t0.084,0.154z M114.88132,35.316q0,1.008,0.7,1.008q1.624,0,4.424-3.556l2.968-4.088q-0.224-0.392-0.728-0.392q-1.708,0-4.536,2.646t-2.828,4.382z M131.23808,27.952q0.756,0,0.756,0.588q0,0.168-0.084,0.336q-2.52,3.5-3.024,5.292q6.524-6.524,7.924-6.524q0.14-0.028,0.252-0.028q0.784,0,0.784,0.7q0,0.14-0.056,0.28t-1.12,1.512q-1.232,1.456-2.086,2.8t-0.854,2.24t0.392,0.896q1.232,0,4.284-3.388q0.056-0.056,0.196-0.252q0.42-0.504,0.504-0.504t0.084,0.28t-0.392,0.728q-3.472,3.948-4.928,3.948q-1.372,0-1.372-1.512t1.12-3.472l1.792-2.912q-1.904,1.4-3.388,3.066t-2.702,3.234t-1.414,1.568q-0.42,0-0.658-0.35t-0.238-0.868t0.364-1.386t0.924-2.1l-1.68,1.764q-0.616,0.616-0.77,0.616t-0.154-0.182t0.224-0.406q1.036-1.036,1.792-1.988q0.728-0.952,2.996-3.64q0.252-0.336,0.532-0.336z M148.43484,28.316q3.136-5.096,4.368-5.096q0.196,0,0.546,0.126t0.35,0.378q0,0.14-0.14,0.364q-2.24,2.744-3.332,4.116q-3.304,4.172-3.64,5.992q-0.084,0.392-0.084,0.784q0,1.26,1.036,1.26q2.072,0,5.404-3.836q0.28-0.28,0.476-0.322t0.196,0.098t-0.168,0.336q-3.248,3.892-5.768,4.34q-0.14,0.028-0.392,0.028q-0.868,0-1.302-0.602t-0.434-1.302q0-0.784,0.308-1.736l-2.268,2.268q-1.54,1.428-2.422,1.428t-1.47-0.476q-0.7-0.532-0.7-1.484q0-2.044,2.856-4.886t5.236-2.842q0.784,0,1.092,0.42q0.112,0.14,0.252,0.644z M140.17484,35.316q0,1.008,0.7,1.008q1.204,0,4.004-3.304q0.504-0.588,3.36-4.396q-0.196-0.336-0.672-0.336q-1.736,0-4.564,2.646t-2.828,4.382z M154.9916,37.164q-0.308,0-0.56-0.084q-1.792-0.504-1.792-2.016q0-1.96,2.464-4.536t4.424-2.576q0.644,0,1.05,0.35t0.406,0.854q0,1.568-2.366,2.996t-3.85,1.428q-0.224,0-0.392-0.056q-0.42,0.756-0.42,1.596q0,1.456,1.386,1.456t3.598-1.876q1.708-1.372,2.912-2.912q0.252-0.336,0.434-0.336t0.182,0.168t-0.224,0.476q-1.512,1.988-3.64,3.528t-3.612,1.54z M160.2836,29.1q0-0.336-0.714-0.336t-2.03,1.092q-1.764,1.456-2.744,3.052q0.168,0.056,0.364,0.056q1.064,0,2.842-1.134t2.226-2.478q0.056-0.14,0.056-0.252z M167.73636,37.136q-2.212,0-3.752-3.5q-0.392,0.588-1.764,3.304q-1.008-0.392-1.008-1.064q0-1.204,3.612-6.608t4.956-6.356q0.112-0.084,0.448-0.084q0.868,0,0.868,0.448q0,0.224-1.946,2.52t-2.17,2.772q2.548-1.316,4.06-1.316q0.868,0,1.484,0.7q0.588,0.588,0.588,1.204l0,0.168q-0.224,1.596-2.24,2.632q-1.624,0.868-3.024,0.868t-1.96-0.364q-0.168-0.028-0.266,0.084t-0.042,0.28q0.784,3.472,2.604,3.472q0.952,0,2.45-1.064t3.122-2.996q0.196-0.196,0.35-0.196t0.154,0.154t-0.196,0.434q-1.512,1.848-2.856,2.912q-2.044,1.596-3.472,1.596z M171.76836,28.568q0-0.224-0.252-0.448t-0.532-0.224q-1.512,0-3.626,1.26t-2.59,2.856q0.252,0,1.344,0.084q1.26,0,3.304-1.036q2.352-1.176,2.352-2.492z M183.56112,28.428l0.392-0.084q0.308,0,0.588,0.252t0.28,0.392t-1.736,2.702t-1.736,3.57q0,0.084,0.028,0.168q0.14,0.644,0.616,0.644q1.456,0,5.32-4.816q0.084-0.112,0.196-0.112t0.112,0.21t-0.252,0.546q-3.584,4.788-5.46,4.788q-0.252,0-0.476-0.084q-1.232-0.476-1.232-1.848q0-0.476,0.112-0.952l-1.736,1.68q-1.652,1.456-2.394,1.456t-1.414-0.476q-0.756-0.56-0.756-1.484q0-2.044,2.856-4.886t5.236-2.842q0.924,0,1.232,0.644q0.084,0.224,0.14,0.378t0.084,0.154z M175.18912,35.316q0,1.008,0.7,1.008q1.624,0,4.424-3.556l2.968-4.088q-0.224-0.392-0.728-0.392q-1.708,0-4.536,2.646t-2.828,4.382z M192.74988,36.94q-2.1,0-2.1-2.324q0-1.176,0.616-2.576t1.344-2.352q-0.14,0.028-0.364,0.028q-0.672,0-1.12-0.952l-2.072,2.688q-1.736,2.156-2.016,2.156q-0.14,0-0.14-0.112q0-0.28,0.476-0.812q2.436-2.828,3.444-4.788q0.644-2.436,1.624-2.436q0.644,0,0.644,0.56t-0.7,1.428l-0.672,0.896q0,0.588,0.868,0.588q0.504,0,1.12-0.364l0.728-0.448q0.056-0.028,0.28-0.028t0.476,0.28t0.168,0.504l-1.932,2.436q-1.792,2.296-1.792,3.626t1.232,1.33q1.288,0,3.164-1.372q1.12-0.812,2.044-1.82q0.868-1.008,0.952-1.008q0.196,0,0.196,0.21t-0.252,0.49l-0.896,1.008q-0.756,0.784-1.68,1.512q-2.212,1.652-3.64,1.652z"/><path fill="#" d=""/></svg>
